<?xml version="1.0" encoding="UTF-8" ?>
<!DOCTYPE svg PUBLIC "-//W3C//DTD SVG 1.1//EN" "http://www.w3.org/Graphics/SVG/1.1/DTD/svg11.dtd">
<svg width="334pt" height="307pt" viewBox="0 0 334 307" version="1.1" xmlns="http://www.w3.org/2000/svg">
<g id="#5e1f15ff">
<path fill="#5e1f15" opacity="1.00" d=" M 0.00 0.00 L 0.28 0.00 C 0.21 0.10 0.07 0.29 0.00 0.39 L 0.00 0.00 Z" />
<path fill="#5e1f15" opacity="1.00" d=" M 131.01 0.00 L 140.35 0.00 C 147.77 1.08 154.55 4.76 160.02 9.80 C 168.93 6.22 179.28 6.61 187.77 11.16 C 198.01 16.30 204.76 26.67 207.03 37.73 C 230.89 45.76 253.29 58.93 270.77 77.18 C 292.22 99.01 305.57 127.96 310.82 157.93 C 314.39 178.97 312.57 201.15 304.06 220.83 C 311.64 222.28 319.16 224.40 326.05 227.92 C 329.84 229.86 333.39 233.50 333.32 238.02 C 334.25 252.97 328.62 267.80 319.61 279.56 C 315.56 285.01 310.17 289.37 304.11 292.40 C 303.85 294.89 303.67 297.41 303.05 299.85 C 299.36 302.58 294.51 302.97 290.09 303.58 C 282.59 304.18 274.55 303.68 267.78 300.16 C 266.79 297.72 266.88 295.01 266.56 292.44 C 260.16 289.48 255.18 284.40 250.61 279.17 C 222.72 295.88 190.54 304.46 158.28 307.00 L 131.70 307.00 C 100.59 304.82 68.99 296.36 43.89 277.20 C 28.82 265.71 16.54 250.41 9.26 232.87 C 3.60 219.75 1.03 205.54 0.00 191.36 L 0.00 174.62 C 1.10 158.65 3.98 142.72 9.80 127.75 C 21.03 98.02 42.93 73.18 69.16 55.64 C 68.34 44.57 72.14 32.95 80.46 25.39 C 87.43 18.61 97.53 15.57 107.13 16.78 C 112.27 8.11 121.04 1.77 131.01 0.00 M 118.27 17.94 C 117.01 19.42 115.86 20.99 114.83 22.64 C 120.15 27.85 124.56 34.07 126.73 41.27 L 126.78 40.21 C 126.77 40.74 126.75 41.79 126.74 42.32 C 123.94 37.57 120.07 33.45 115.58 30.25 C 107.51 24.90 96.06 25.46 88.53 31.53 C 83.38 35.39 80.30 41.32 78.94 47.51 C 78.57 49.89 78.47 52.31 78.51 54.72 C 82.00 54.11 85.47 53.35 89.00 53.06 C 91.94 53.33 94.84 53.99 97.80 54.04 L 98.13 54.33 C 92.41 55.32 86.47 56.31 81.50 59.52 C 75.74 63.35 69.87 67.04 64.46 71.37 C 45.64 85.94 29.94 104.90 20.61 126.90 C 12.88 143.45 9.97 161.85 9.22 179.98 C 8.87 200.42 12.45 221.39 22.82 239.26 C 34.99 260.82 55.71 276.56 78.51 285.55 C 97.39 293.06 117.72 296.81 138.00 297.17 C 145.02 298.10 152.03 296.73 159.05 296.91 C 189.17 294.52 219.23 286.45 245.27 270.85 C 243.35 267.20 241.67 263.43 240.25 259.55 C 238.23 252.89 236.85 245.92 237.10 238.93 C 237.01 232.83 242.34 228.39 247.64 226.48 C 262.29 220.42 278.44 217.86 294.25 219.05 C 303.17 200.10 304.99 178.30 301.14 157.83 C 297.31 137.60 289.66 117.98 277.92 101.01 C 261.45 76.99 236.79 59.22 209.59 49.24 L 209.76 49.05 C 207.66 48.28 205.56 47.52 203.44 46.84 C 200.28 53.13 195.70 58.66 189.85 62.62 C 189.67 62.64 189.31 62.69 189.13 62.71 C 194.02 56.62 198.73 49.11 197.68 40.95 C 196.81 32.31 191.52 24.21 183.77 20.20 C 178.89 17.51 173.13 17.04 167.68 17.82 C 166.07 18.22 164.48 18.70 162.90 19.20 C 163.11 22.49 163.88 25.71 164.03 29.00 C 163.96 32.82 162.91 36.53 162.37 40.29 C 161.91 41.17 161.52 42.08 161.20 43.02 C 161.54 37.21 160.90 31.34 159.13 25.80 C 155.62 16.51 146.05 9.64 136.02 9.96 C 129.25 9.79 122.83 13.09 118.27 17.94 M 260.58 227.52 C 254.94 229.14 249.09 230.83 244.35 234.43 C 245.51 235.41 246.83 236.00 248.30 236.21 L 247.78 236.46 C 249.55 237.33 251.33 238.20 253.11 239.08 C 273.18 229.87 297.16 229.61 317.20 239.03 C 319.18 238.24 321.14 237.41 323.10 236.55 L 322.74 236.36 C 323.96 235.78 325.18 235.19 326.40 234.60 C 323.80 232.26 320.46 231.07 317.27 229.78 C 308.86 226.66 299.95 225.17 291.07 224.19 C 280.81 223.35 270.53 225.08 260.58 227.52 M 255.41 239.71 C 261.00 241.95 266.95 243.03 272.88 243.92 C 287.14 244.05 302.05 245.38 315.47 239.51 C 296.41 231.82 274.32 231.22 255.41 239.71 M 242.80 236.76 C 242.66 238.13 242.53 239.50 242.40 240.87 C 242.69 253.55 247.28 265.98 254.95 276.04 C 260.15 282.74 267.42 288.24 275.80 290.02 C 276.57 290.36 278.10 291.02 278.86 291.35 C 276.54 291.79 274.19 292.11 271.83 292.12 C 271.90 293.32 271.98 294.54 272.06 295.75 C 280.53 299.15 290.26 299.23 298.70 295.66 C 298.82 294.47 298.95 293.29 299.09 292.12 C 296.52 292.08 293.99 291.74 291.44 291.48 C 299.98 289.13 308.29 284.98 314.05 278.07 C 323.50 266.65 329.18 251.70 327.99 236.77 C 318.36 242.73 307.24 245.82 296.04 246.99 C 288.68 247.17 281.31 247.27 273.95 246.94 C 263.03 245.67 252.18 242.63 242.80 236.76 Z" />
<path fill="#5e1f15" opacity="1.00" d=" M 162.42 91.92 C 159.79 83.53 159.47 73.99 163.31 65.90 C 164.60 81.16 167.76 97.17 177.90 109.20 C 170.22 106.47 164.75 99.57 162.42 91.92 Z" />
<path fill="#5e1f15" opacity="1.00" d=" M 168.02 71.34 C 173.36 79.29 178.53 88.01 187.04 92.98 C 182.66 93.94 178.50 91.36 175.51 88.40 C 171.06 83.86 168.20 77.74 168.02 71.34 Z" />
<path fill="#5e1f15" opacity="1.00" d=" M 144.30 84.32 C 146.61 80.96 148.24 77.21 150.38 73.75 C 149.76 80.99 148.72 88.96 143.61 94.54 C 140.89 97.62 136.64 98.35 132.73 98.04 C 136.79 93.64 140.90 89.26 144.30 84.32 Z" />
<path fill="#5e1f15" opacity="1.00" d=" M 214.57 175.85 C 218.19 175.34 221.30 177.56 224.73 178.23 C 230.07 179.79 235.65 178.99 241.12 178.86 C 245.16 178.79 248.64 176.18 252.68 176.19 C 252.72 180.94 247.80 183.12 243.80 183.77 C 234.84 184.85 225.40 184.09 217.19 180.08 C 215.53 179.28 214.31 177.78 214.57 175.85 Z" />
<path fill="#5e1f15" opacity="1.00" d=" M 141.07 182.95 C 143.26 182.12 145.21 180.51 147.67 180.53 C 147.69 181.42 147.74 183.21 147.77 184.11 C 137.90 190.77 125.46 191.89 113.87 191.19 C 110.30 190.77 106.21 188.73 106.95 184.44 C 110.46 183.63 113.54 185.86 116.98 186.02 C 125.09 186.32 133.46 186.12 141.07 182.95 Z" />
<path fill="#5e1f15" opacity="1.00" d=" M 183.67 186.91 C 186.22 186.70 189.79 185.37 191.57 187.87 C 189.15 189.70 185.20 190.09 183.67 186.91 Z" />
<path fill="#5e1f15" opacity="1.00" d=" M 211.20 206.27 C 215.94 205.40 219.40 201.86 222.21 198.21 C 220.44 204.08 215.54 209.00 209.26 209.61 C 206.78 218.81 202.86 228.22 195.19 234.30 C 185.77 241.79 171.62 242.97 161.40 236.44 C 153.64 231.20 151.39 221.23 151.47 212.41 C 147.86 210.75 144.82 208.08 142.64 204.77 C 147.21 208.55 153.07 210.52 159.01 210.02 C 168.67 209.55 177.83 205.88 186.42 201.67 C 194.24 204.67 202.69 207.98 211.20 206.27 M 153.92 212.82 C 154.02 215.97 154.31 219.12 154.80 222.24 C 155.98 228.02 159.21 233.59 164.53 236.44 C 176.39 242.98 192.41 238.25 199.47 226.87 C 202.80 221.62 205.17 215.83 206.73 209.83 C 200.00 209.81 193.49 208.04 186.98 206.55 C 176.29 209.92 165.37 214.19 153.92 212.82 Z" />
<path fill="#5e1f15" opacity="1.00" d=" M 278.50 256.58 C 279.97 254.10 282.82 254.56 284.27 256.78 C 285.41 256.78 286.56 256.78 287.72 256.78 C 289.17 254.59 291.97 254.10 293.48 256.54 C 295.36 256.88 298.30 257.52 297.63 260.12 C 296.79 262.73 293.67 262.05 291.60 262.50 C 293.61 265.23 298.32 266.23 298.42 270.04 C 297.79 273.26 294.29 271.68 292.32 270.89 C 293.19 271.93 294.06 272.97 294.94 274.02 C 294.69 274.74 294.20 276.19 293.96 276.92 C 292.17 278.31 290.33 276.31 288.80 275.53 C 288.62 276.27 288.25 277.73 288.06 278.47 C 286.58 278.46 285.10 278.43 283.63 278.40 C 283.54 276.92 283.54 275.44 283.63 273.97 C 282.82 275.16 282.56 277.13 280.97 277.50 C 280.15 277.44 278.50 277.33 277.67 277.27 C 277.18 274.91 278.38 272.82 279.46 270.84 C 278.26 271.31 277.05 271.77 275.85 272.23 C 275.06 271.36 274.27 270.50 273.48 269.64 C 274.87 266.47 278.02 264.86 280.38 262.53 C 277.71 262.34 274.42 262.24 273.54 259.14 C 274.74 257.51 276.49 256.64 278.50 256.58 M 280.95 256.14 C 280.85 256.77 280.64 258.03 280.53 258.66 C 278.82 259.00 275.88 257.60 275.46 260.14 C 277.26 260.27 279.07 260.34 280.88 260.44 C 281.32 261.57 281.75 262.74 282.87 263.39 C 282.85 262.63 282.81 261.12 282.79 260.36 C 284.82 260.35 286.85 260.34 288.89 260.33 C 289.00 261.09 289.20 262.62 289.31 263.38 C 290.42 262.78 290.58 261.47 291.04 260.43 C 292.68 259.93 295.97 261.41 296.06 258.77 C 294.53 258.69 293.00 258.69 291.47 258.65 C 291.36 258.01 291.14 256.75 291.02 256.12 C 290.60 256.75 289.75 258.01 289.33 258.65 C 287.11 258.66 284.89 258.66 282.67 258.65 C 282.24 258.02 281.38 256.77 280.95 256.14 M 275.19 269.87 C 275.51 269.95 276.16 270.11 276.48 270.20 C 279.47 267.82 282.53 265.53 285.89 263.68 C 288.53 265.12 291.08 266.72 293.41 268.62 C 294.51 269.33 295.59 270.71 297.10 270.05 C 294.27 266.29 289.95 264.15 285.94 261.90 C 282.05 264.07 277.92 266.22 275.19 269.87 M 285.59 265.84 C 285.46 266.53 285.19 267.90 285.06 268.59 C 283.06 268.59 281.07 268.70 279.11 269.05 C 280.45 271.16 283.14 270.14 285.19 270.38 C 285.18 272.57 285.19 274.77 285.21 276.97 C 285.60 276.97 286.40 276.97 286.79 276.97 C 286.81 274.77 286.81 272.58 286.81 270.38 C 288.85 270.15 291.48 271.11 292.89 269.11 C 290.97 268.68 289.01 268.61 287.06 268.57 C 286.73 267.57 286.64 266.37 285.59 265.84 M 278.97 276.08 C 281.32 275.91 282.11 273.36 283.25 271.71 C 280.75 271.54 279.71 274.18 278.97 276.08 M 288.73 271.66 C 289.60 273.49 291.05 274.91 292.62 276.14 C 293.50 273.77 290.96 271.64 288.73 271.66 Z" />
</g>
<g id="#fffef5ff">
<path fill="#fffef5" opacity="1.00" d=" M 118.27 17.94 C 122.83 13.09 129.25 9.79 136.02 9.96 C 146.05 9.64 155.62 16.51 159.13 25.80 C 160.90 31.34 161.54 37.21 161.20 43.02 C 161.52 42.08 161.91 41.17 162.37 40.29 C 168.05 34.38 167.70 25.45 167.68 17.82 C 173.13 17.04 178.89 17.51 183.77 20.20 C 191.52 24.21 196.81 32.31 197.68 40.95 C 198.73 49.11 194.02 56.62 189.13 62.71 C 189.31 62.69 189.67 62.64 189.85 62.62 C 198.40 62.19 204.46 55.32 209.59 49.24 C 236.79 59.22 261.45 76.99 277.92 101.01 C 289.66 117.98 297.31 137.60 301.14 157.83 C 304.99 178.30 303.17 200.10 294.25 219.05 C 278.44 217.86 262.29 220.42 247.64 226.48 C 242.34 228.39 237.01 232.83 237.10 238.93 C 236.85 245.92 238.23 252.89 240.25 259.55 C 229.24 264.34 218.35 269.49 206.78 272.81 C 187.43 278.57 167.23 281.26 147.08 281.93 C 120.22 282.32 92.25 276.86 70.15 260.84 C 54.79 249.99 43.12 234.48 35.47 217.41 C 22.77 189.13 19.92 157.57 20.61 126.90 C 29.94 104.90 45.64 85.94 64.46 71.37 C 69.87 67.04 75.74 63.35 81.50 59.52 C 86.47 56.31 92.41 55.32 98.13 54.33 L 97.80 54.04 C 92.72 49.24 85.30 49.33 78.94 47.51 C 80.30 41.32 83.38 35.39 88.53 31.53 C 96.06 25.46 107.51 24.90 115.58 30.25 C 120.07 33.45 123.94 37.57 126.74 42.32 C 126.75 41.79 126.77 40.74 126.78 40.21 C 127.62 31.89 123.05 24.34 118.27 17.94 M 162.42 91.92 C 164.75 99.57 170.22 106.47 177.90 109.20 C 167.76 97.17 164.60 81.16 163.31 65.90 C 159.47 73.99 159.79 83.53 162.42 91.92 M 168.02 71.34 C 168.20 77.74 171.06 83.86 175.51 88.40 C 178.50 91.36 182.66 93.94 187.04 92.98 C 178.53 88.01 173.36 79.29 168.02 71.34 M 144.30 84.32 C 140.90 89.26 136.79 93.64 132.73 98.04 C 136.64 98.35 140.89 97.62 143.61 94.54 C 148.72 88.96 149.76 80.99 150.38 73.75 C 148.24 77.21 146.61 80.96 144.30 84.32 M 214.57 175.85 C 214.31 177.78 215.53 179.28 217.19 180.08 C 225.40 184.09 234.84 184.85 243.80 183.77 C 247.80 183.12 252.72 180.94 252.68 176.19 C 248.64 176.18 245.16 178.79 241.12 178.86 C 235.65 178.99 230.07 179.79 224.73 178.23 C 221.30 177.56 218.19 175.34 214.57 175.85 M 141.07 182.95 C 133.46 186.12 125.09 186.32 116.98 186.02 C 113.54 185.86 110.46 183.63 106.95 184.44 C 106.21 188.73 110.30 190.77 113.87 191.19 C 125.46 191.89 137.90 190.77 147.77 184.11 C 147.74 183.21 147.69 181.42 147.67 180.53 C 145.21 180.51 143.26 182.12 141.07 182.95 M 183.67 186.91 C 185.20 190.09 189.15 189.70 191.57 187.87 C 189.79 185.37 186.22 186.70 183.67 186.91 M 211.20 206.27 C 202.69 207.98 194.24 204.67 186.42 201.67 C 177.83 205.88 168.67 209.55 159.01 210.02 C 153.07 210.52 147.21 208.55 142.64 204.77 C 144.82 208.08 147.86 210.75 151.47 212.41 C 151.39 221.23 153.64 231.20 161.40 236.44 C 171.62 242.97 185.77 241.79 195.19 234.30 C 202.86 228.22 206.78 218.81 209.26 209.61 C 215.54 209.00 220.44 204.08 222.21 198.21 C 219.40 201.86 215.94 205.40 211.20 206.27 Z" />
</g>
<g id="#f6e2d7ff">
<path fill="#f6e2d7" opacity="1.00" d=" M 114.83 22.64 C 115.86 20.99 117.01 19.42 118.27 17.94 C 123.05 24.34 127.62 31.89 126.78 40.21 L 126.73 41.27 C 124.56 34.07 120.15 27.85 114.83 22.64 Z" />
<path fill="#f6e2d7" opacity="1.00" d=" M 162.90 19.20 C 164.48 18.70 166.07 18.22 167.68 17.82 C 167.70 25.45 168.05 34.38 162.37 40.29 C 162.91 36.53 163.96 32.82 164.03 29.00 C 163.88 25.71 163.11 22.49 162.90 19.20 Z" />
<path fill="#f6e2d7" opacity="1.00" d=" M 78.94 47.51 C 85.30 49.33 92.72 49.24 97.80 54.04 C 94.84 53.99 91.94 53.33 89.00 53.06 C 85.47 53.35 82.00 54.11 78.51 54.72 C 78.47 52.31 78.57 49.89 78.94 47.51 Z" />
<path fill="#f6e2d7" opacity="1.00" d=" M 203.44 46.84 C 205.56 47.52 207.66 48.28 209.76 49.05 L 209.59 49.24 C 204.46 55.32 198.40 62.19 189.85 62.62 C 195.70 58.66 200.28 53.13 203.44 46.84 Z" />
<path fill="#f6e2d7" opacity="1.00" d=" M 9.22 179.98 C 9.97 161.85 12.88 143.45 20.61 126.90 C 19.92 157.57 22.77 189.13 35.47 217.41 C 43.12 234.48 54.79 249.99 70.15 260.84 C 92.25 276.86 120.22 282.32 147.08 281.93 C 167.23 281.26 187.43 278.57 206.78 272.81 C 218.35 269.49 229.24 264.34 240.25 259.55 C 241.67 263.43 243.35 267.20 245.27 270.85 C 219.23 286.45 189.17 294.52 159.05 296.91 C 152.03 296.73 145.02 298.10 138.00 297.17 C 117.72 296.81 97.39 293.06 78.51 285.55 C 55.71 276.56 34.99 260.82 22.82 239.26 C 12.45 221.39 8.87 200.42 9.22 179.98 Z" />
</g>
<g id="#e43336ff">
<path fill="#e43336" opacity="1.00" d=" M 153.92 212.82 C 165.37 214.19 176.29 209.92 186.98 206.55 C 193.49 208.04 200.00 209.81 206.73 209.83 C 205.17 215.83 202.80 221.62 199.47 226.87 C 185.53 220.65 169.72 219.89 154.80 222.24 C 154.31 219.12 154.02 215.97 153.92 212.82 Z" />
</g>
<g id="#ff7e80ff">
<path fill="#ff7e80" opacity="1.00" d=" M 154.80 222.24 C 169.72 219.89 185.53 220.65 199.47 226.87 C 192.41 238.25 176.39 242.98 164.53 236.44 C 159.21 233.59 155.98 228.02 154.80 222.24 Z" />
</g>
<g id="#8d826eff">
<path fill="#8d826e" opacity="1.00" d=" M 260.58 227.52 C 270.53 225.08 280.81 223.35 291.07 224.19 C 299.95 225.17 308.86 226.66 317.27 229.78 C 320.46 231.07 323.80 232.26 326.40 234.60 C 325.18 235.19 323.96 235.78 322.74 236.36 C 306.82 226.97 287.49 226.14 269.61 228.58 C 262.04 229.61 254.96 232.59 248.30 236.21 C 246.83 236.00 245.51 235.41 244.35 234.43 C 249.09 230.83 254.94 229.14 260.58 227.52 Z" />
</g>
<g id="#7f6655ff">
<path fill="#7f6655" opacity="1.00" d=" M 269.61 228.58 C 287.49 226.14 306.82 226.97 322.74 236.36 L 323.10 236.55 C 321.14 237.41 319.18 238.24 317.20 239.03 C 297.16 229.61 273.18 229.87 253.11 239.08 C 251.33 238.20 249.55 237.33 247.78 236.46 L 248.30 236.21 C 254.96 232.59 262.04 229.61 269.61 228.58 Z" />
<path fill="#7f6655" opacity="1.00" d=" M 242.40 240.87 C 246.28 243.45 250.46 245.56 254.73 247.44 C 254.99 257.98 257.03 268.88 263.37 277.57 C 266.51 282.65 271.36 286.19 275.80 290.02 C 267.42 288.24 260.15 282.74 254.95 276.04 C 247.28 265.98 242.69 253.55 242.40 240.87 Z" />
<path fill="#7f6655" opacity="1.00" d=" M 278.86 291.35 C 283.04 291.92 287.26 292.03 291.44 291.48 C 293.99 291.74 296.52 292.08 299.09 292.12 C 298.95 293.29 298.82 294.47 298.70 295.66 C 290.26 299.23 280.53 299.15 272.06 295.75 C 271.98 294.54 271.90 293.32 271.83 292.12 C 274.19 292.11 276.54 291.79 278.86 291.35 Z" />
</g>
<g id="#89873cff">
<path fill="#89873c" opacity="1.00" d=" M 255.41 239.71 C 274.32 231.22 296.41 231.82 315.47 239.51 C 302.05 245.38 287.14 244.05 272.88 243.92 C 266.95 243.03 261.00 241.95 255.41 239.71 Z" />
</g>
<g id="#8e826cff">
<path fill="#8e826c" opacity="1.00" d=" M 242.80 236.76 C 252.18 242.63 263.03 245.67 273.95 246.94 C 281.31 247.27 288.68 247.17 296.04 246.99 C 307.24 245.82 318.36 242.73 327.99 236.77 C 329.18 251.70 323.50 266.65 314.05 278.07 C 308.29 284.98 299.98 289.13 291.44 291.48 C 287.26 292.03 283.04 291.92 278.86 291.35 C 278.10 291.02 276.57 290.36 275.80 290.02 C 271.36 286.19 266.51 282.65 263.37 277.57 C 257.03 268.88 254.99 257.98 254.73 247.44 C 250.46 245.56 246.28 243.45 242.40 240.87 C 242.53 239.50 242.66 238.13 242.80 236.76 M 278.50 256.58 C 276.49 256.64 274.74 257.51 273.54 259.14 C 274.42 262.24 277.71 262.34 280.38 262.53 C 278.02 264.86 274.87 266.47 273.48 269.64 C 274.27 270.50 275.06 271.36 275.85 272.23 C 277.05 271.77 278.26 271.31 279.46 270.84 C 278.38 272.82 277.18 274.91 277.67 277.27 C 278.50 277.33 280.15 277.44 280.97 277.50 C 282.56 277.13 282.82 275.16 283.63 273.97 C 283.54 275.44 283.54 276.92 283.63 278.40 C 285.10 278.43 286.58 278.46 288.06 278.47 C 288.25 277.73 288.62 276.27 288.80 275.53 C 290.33 276.31 292.17 278.31 293.96 276.92 C 294.20 276.19 294.69 274.74 294.94 274.02 C 294.06 272.97 293.19 271.93 292.32 270.89 C 294.29 271.68 297.79 273.26 298.42 270.04 C 298.32 266.23 293.61 265.23 291.60 262.50 C 293.67 262.05 296.79 262.73 297.63 260.12 C 298.30 257.52 295.36 256.88 293.48 256.54 C 291.97 254.10 289.17 254.59 287.72 256.78 C 286.56 256.78 285.41 256.78 284.27 256.78 C 282.82 254.56 279.97 254.10 278.50 256.58 Z" />
</g>
<g id="#deddc1ff">
<path fill="#deddc1" opacity="1.00" d=" M 280.95 256.14 C 281.38 256.77 282.24 258.02 282.67 258.65 C 284.89 258.66 287.11 258.66 289.33 258.65 C 289.75 258.01 290.60 256.75 291.02 256.12 C 291.14 256.75 291.36 258.01 291.47 258.65 C 293.00 258.69 294.53 258.69 296.06 258.77 C 295.97 261.41 292.68 259.93 291.04 260.43 C 290.58 261.47 290.42 262.78 289.31 263.38 C 289.20 262.62 289.00 261.09 288.89 260.33 C 286.85 260.34 284.82 260.35 282.79 260.36 C 282.81 261.12 282.85 262.63 282.87 263.39 C 281.75 262.74 281.32 261.57 280.88 260.44 C 279.07 260.34 277.26 260.27 275.46 260.14 C 275.88 257.60 278.82 259.00 280.53 258.66 C 280.64 258.03 280.85 256.77 280.95 256.14 Z" />
<path fill="#deddc1" opacity="1.00" d=" M 275.19 269.87 C 277.92 266.22 282.05 264.07 285.94 261.90 C 289.95 264.15 294.27 266.29 297.10 270.05 C 295.59 270.71 294.51 269.33 293.41 268.62 C 291.08 266.72 288.53 265.12 285.89 263.68 C 282.53 265.53 279.47 267.82 276.48 270.20 C 276.16 270.11 275.51 269.95 275.19 269.87 Z" />
<path fill="#deddc1" opacity="1.00" d=" M 285.59 265.84 C 286.64 266.37 286.73 267.57 287.06 268.57 C 289.01 268.61 290.97 268.68 292.89 269.11 C 291.48 271.11 288.85 270.15 286.81 270.38 C 286.81 272.58 286.81 274.77 286.79 276.97 C 286.40 276.97 285.60 276.97 285.21 276.97 C 285.19 274.77 285.18 272.57 285.19 270.38 C 283.14 270.14 280.45 271.16 279.11 269.05 C 281.07 268.70 283.06 268.59 285.06 268.59 C 285.19 267.90 285.46 266.53 285.59 265.84 Z" />
<path fill="#deddc1" opacity="1.00" d=" M 278.97 276.08 C 279.71 274.18 280.75 271.54 283.25 271.71 C 282.11 273.36 281.32 275.91 278.97 276.08 Z" />
<path fill="#deddc1" opacity="1.00" d=" M 288.73 271.66 C 290.96 271.64 293.50 273.77 292.62 276.14 C 291.05 274.91 289.60 273.49 288.73 271.66 Z" />
</g>
</svg>
