<svg xmlns="http://www.w3.org/2000/svg" viewBox="0 0 158.86 153.38"><defs><style>.cls-1,.cls-8{fill:#59251b;}.cls-1,.cls-2,.cls-3,.cls-4,.cls-5,.cls-6{fill-rule:evenodd;}.cls-2{fill:#fffcf5;}.cls-3,.cls-7{fill:#f1e3d6;}.cls-4{fill:#fff;}.cls-5{fill:#d14641;}.cls-6{fill:#ff8884;}.cls-7{stroke:#59251b;stroke-miterlimit:10;stroke-width:2px;}.cls-8{font-size:48.51px;font-family:KaushanScript-Regular, Kaushan Script;}</style></defs><g id="Layer_2" data-name="Layer 2"><g id="Layer_1-2" data-name="Layer 1"><g id="Layer_2-2" data-name="Layer 2"><g id="File_3" data-name="File 3"><g id="Facing_Left" data-name="Facing Left"><path class="cls-1" d="M121.3,27.81c22.8,15.25,36.05,38.38,34.58,68-.63,12.57-4.71,24.3-12.69,33.86-17.66,21.14-48.62,26.05-73.47,22.8s-53.45-16-64.91-40.9c-5.18-11.29-6-23.66-3.3-35.95,6.4-29,25.3-47.92,51.35-56.77C54.47,9.37,62.89,2.73,72,3.91a16.08,16.08,0,0,1,4.24,1.16,16.65,16.65,0,0,1,14-4.94A16.5,16.5,0,0,1,102.44,8.5a16.21,16.21,0,0,1,4.4,0C115.88,9.66,122.24,18.24,121.3,27.81Z"/><path class="cls-2" d="M116.05,30.28h0c-1.83-1.62-6.76-3.11-9.83-3a16.71,16.71,0,0,1,10.44-.14c.56-6.84-4-12.92-10.51-13.77a11.58,11.58,0,0,0-6.46,1c-2.25.92-6,4.77-7.43,7.65a19.92,19.92,0,0,1,6.22-10.73A12,12,0,0,0,89.54,5a12.32,12.32,0,0,0-12.27,6.41C76,13.62,75.18,19,75.67,22.21A20.22,20.22,0,0,1,74.53,9.74a11.45,11.45,0,0,0-3.23-.91C64.57,8,58.35,13,57.39,20.15a13.22,13.22,0,0,0-.11,2.44c.24,2.52,2.76,7.23,5,9.38a18.13,18.13,0,0,1-8-8.44C29.62,31.88,12,49.53,6,76.67c-17.9,81,141,101.76,145.13,19C152.64,66.83,139.26,44.65,116.05,30.28Z"/><path class="cls-3" d="M92.41,21.74l-.15.29Zm-.15.29c.19-5.16,1.76-9.61,4.8-12.82a12.94,12.94,0,0,1,1.42,2.08A20,20,0,0,0,92.26,22Z"/><path class="cls-3" d="M62.3,32a18.13,18.13,0,0,1-8-8.44c-.89.3-1.78.62-2.65.95A17,17,0,0,0,62.3,32Z"/><path class="cls-3" d="M75.56,21.18a5.88,5.88,0,0,0,.11,1Zm.11,1A18.9,18.9,0,0,1,72.55,9.06a11.23,11.23,0,0,1,2,.68,20.29,20.29,0,0,0,1.12,12.47Z"/><path class="cls-3" d="M106.22,27.3a16.71,16.71,0,0,1,10.44-.14,13.48,13.48,0,0,0-.07-2.91A17.8,17.8,0,0,0,106.22,27.3Z"/><path class="cls-3" d="M10.34,112C36.88,161.73,147.77,164.68,151.2,95.7a71.67,71.67,0,0,0-5.35-32c1.65,55-25.43,86.42-84.41,74.92C43.48,135.08,25,125.28,10.34,112Z"/><path class="cls-1" d="M93.21,76.92a9.45,9.45,0,0,0-8,10.72l0,.21A9.82,9.82,0,0,0,96,96.37a9.45,9.45,0,0,0,8-10.68c0-.09,0-.17,0-.25A9.8,9.8,0,0,0,93.21,76.92Z"/><path class="cls-4" d="M93,78.38a4.05,4.05,0,1,0,4.4,3.52h0A4,4,0,0,0,93,78.38Z"/><path class="cls-1" d="M62.26,93.22a6.74,6.74,0,0,1,1.27,0c.34.06.55.23.57.41s-.16.36-.46.54a3.13,3.13,0,0,1-1.22.43,4,4,0,0,1-1.32-.38c-.35-.17-.58-.33-.6-.52s.16-.36.49-.43A7.67,7.67,0,0,1,62.26,93.22Z"/><path class="cls-1" d="M38,73.36c5-.64,9.4,3.13,9.84,8.42s-3.22,10.11-8.21,10.75a8.89,8.89,0,0,1-9.8-7.88c0-.18,0-.36,0-.54C29.34,78.81,33,74,38,73.36Z"/><path class="cls-4" d="M40.58,75.18A3.91,3.91,0,0,1,45,78.49a3.86,3.86,0,0,1-3.35,4.3h0a3.92,3.92,0,0,1-4.39-3.31,3.85,3.85,0,0,1,3.33-4.31Z"/><path class="cls-1" d="M45.22,99.28c3.73,5.92,10.57,4.46,17.66,1.55,8.32,4.16,17,6.11,21.69,1.65a8.89,8.89,0,0,1-4.3,3.49v.14c.12,8.1-.72,14.12-2.78,18.62S72,131.89,67,131.85h0c-4.48-.7-7.8-3.82-10.29-8.71s-4-10.76-5.08-18.33v-.14A7.53,7.53,0,0,1,45.22,99.28Z"/><path class="cls-5" d="M52.78,104.84c1.09,7.14,2.66,13.25,5,17.77s5.33,7.42,9.35,8.07c4.38,0,7.41-2.26,9.32-6.43s2.74-10.3,2.68-17.9A20.7,20.7,0,0,1,72,106a59.6,59.6,0,0,1-9.26-2.82,49,49,0,0,1-5.6,1.32A22.56,22.56,0,0,1,52.78,104.84Z"/><path class="cls-6" d="M78.55,116.15a22.59,22.59,0,0,0-11-.91,21.92,21.92,0,0,0-11,4.75c.37.91.75,1.78,1.17,2.59,2.3,4.53,5.33,7.42,9.35,8.07,4.38,0,7.41-2.26,9.32-6.43A29.47,29.47,0,0,0,78.55,116.15Z"/><path class="cls-1" d="M67.37,54.31c8.47-3.09,10-15.61,7.08-21.21C73.78,42.88,71.3,49.75,67.37,54.31Z"/><path class="cls-1" d="M81,37c.82,9.31,4.08,12.27,8.62,11.85C82.8,41.76,83,40.29,81,37Z"/><path class="cls-1" d="M72,35.89c-.1,5.65-5.58,11.46-9.22,10.44C66.18,44.63,69.21,40.23,72,35.89Z"/></g><circle class="cls-7" cx="128.17" cy="46.44" r="29.69"/></g></g><text class="cls-8" transform="translate(109.2 62.03)">X</text></g></g></svg>